#!OML:ASF H:\Male1\Project 1\Capture day 1\Session 1\Male1.ASF
:FULLY-SPECIFIED
:DEGREES
1095
root -25.9191 13.7259 3.14231 187.228 3.25036 -174.787
lowerback 28.1429 -2.03568 -1.84148
upperback 14.3908 0.943903 -2.13845
thorax 0.667971 2.0764 -1.51427
lowerneck -1.24712 5.9056 7.58981
upperneck -20.2409 8.28719 -10.4391
head -5.07191 4.97954 -4.90461
rclavicle 1.59028e-014 1.27222e-014
rhumerus 0.332653 -0.406799 -61.99
rradius 129.238
rwrist -13.8872
rhand -37.5433 -1.87925
rfingers 7.12502
rthumb -10.5987 -31.592
lclavicle 1.59028e-014 1.27222e-014
lhumerus 0.527319 12.1449 50.4616
lradius 120.449
lwrist -13.9432
lhand -37.0881 16.8483
lfingers 7.12502
lthumb -10.1596 46.583
rfemur -42.1154 2.33739 28.9715
rtibia 63.2567
rfoot -26.2539 -18.7527
rtoes -28.2264
lfemur -43.587 -3.20067 -13.8267
ltibia 65.4749
lfoot -26.5391 7.94037
ltoes -20.0042
1096
root -25.9407 13.7221 3.14027 187.239 3.27773 -174.623
lowerback 28.1574 -2.05458 -1.70529
upperback 14.4062 0.956983 -2.1191
thorax 0.676983 2.0913 -1.57418
lowerneck -1.20048 5.90137 7.64841
upperneck -20.2878 8.28663 -10.4408
head -5.09184 4.97729 -4.91928
rclavicle -3.97569e-014 1.59028e-014
rhumerus 0.275871 -0.388076 -62.0592
rradius 129.276
rwrist -13.8706
rhand -37.5815 -1.91306
rfingers 7.12502
rthumb -10.6356 -31.6239
lclavicle -3.97569e-014 1.59028e-014
lhumerus 0.51187 11.9836 50.3753
lradius 120.463
lwrist -14.0217
lhand -37.1888 17.1053
lfingers 7.12502
lthumb -10.2568 46.8353
rfemur -42.1141 2.3298 29.0545
rtibia 63.2546
rfoot -26.2136 -18.6751
rtoes -28.2555
lfemur -43.6654 -3.11636 -13.7729
ltibia 65.6291
lfoot -26.5992 7.8993
ltoes -19.5931
1097
root -25.9605 13.7194 3.13743 187.234 3.29256 -174.513
lowerback 28.1627 -2.07238 -1.59919
upperback 14.4262 0.967054 -2.10834
thorax 0.696238 2.10447 -1.62504
lowerneck -1.1804 5.89503 7.68171
upperneck -20.3079 8.28275 -10.4279
head -5.10119 4.97307 -4.92264
rclavicle -1.66979e-014 -1.27222e-014
rhumerus 0.23079 -0.392405 -62.1003
rradius 129.288
rwrist -13.8893
rhand -37.613 -1.94777
rfingers 7.12502
rthumb -10.666 -31.6571
lclavicle -1.66979e-014 -1.27222e-014
lhumerus 0.537014 11.8315 50.3234
lradius 120.436
lwrist -14.0995
lhand -37.318 17.4173
lfingers 7.12502
lthumb -10.3814 47.141
rfemur -42.0982 2.34951 29.0845
rtibia 63.2583
rfoot -26.1864 -18.6511
rtoes -28.2408
lfemur -43.7062 -3.05177 -13.7707
ltibia 65.7423
lfoot -26.6479 7.86415
ltoes -19.2315
1098
root -25.979 13.7175 3.13385 187.224 3.2974 -174.473
lowerback 28.1481 -2.08894 -1.54798
upperback 14.4469 0.96504 -2.10485
thorax 0.725738 2.10856 -1.64865
lowerneck -1.17012 5.89244 7.68584
upperneck -20.308 8.2816 -10.4098
head -5.10396 4.97064 -4.91813
rclavicle -1.59028e-014 -2.14687e-014
rhumerus 0.212326 -0.390273 -62.1082
rradius 129.27
rwrist -13.9364
rhand -37.6399 -1.99734
rfingers 7.12502
rthumb -10.692 -31.7053
lclavicle -1.59028e-014 -2.14687e-014
lhumerus 0.579592 11.7167 50.3149
lradius 120.373
lwrist -14.1657
lhand -37.4374 17.6625
lfingers 7.12502
lthumb -10.4966 47.3804
rfemur -42.0877 2.37299 29.0426
rtibia 63.2767
rfoot -26.1763 -18.6584
rtoes -28.193
lfemur -43.7228 -3.00525 -13.8401
ltibia 65.8173
lfoot -26.6878 7.83659
ltoes -18.9398
1099
root -25.9965 13.7159 3.12982 187.209 3.28712 -174.5
lowerback 28.1202 -2.11045 -1.55268
upperback 14.4677 0.942297 -2.10375
thorax 0.761802 2.09881 -1.6371
lowerneck -1.1779 5.89813 7.65521
upperneck -20.287 8.28826 -10.3905
head -5.09796 4.97313 -4.90563
rclavicle -3.18055e-014 3.18055e-014
rhumerus 0.236858 -0.359583 -62.0789
rradius 129.224
rwrist -13.9974
rhand -37.6753 -2.07363
rfingers 7.12502
rthumb -10.7261 -31.7798
lclavicle -3.18055e-014 3.18055e-014
lhumerus 0.605628 11.6425 50.3202
lradius 120.297
lwrist -14.1992
lhand -37.5176 17.7914
lfingers 7.12502
lthumb -10.574 47.5054
rfemur -42.0864 2.37416 28.932
rtibia 63.3103
rfoot -26.1837 -18.6667
rtoes -28.117
lfemur -43.7247 -2.97612 -13.9787
ltibia 65.8598
lfoot -26.718 7.80806
ltoes -18.6958
1100
root -26.0123 13.7148 3.12536 187.196 3.27132 -174.566
lowerback 28.0768 -2.12731 -1.59942
upperback 14.487 0.913855 -2.0994
thorax 0.803433 2.0828 -1.59611
lowerneck -1.20778 5.90571 7.61638
upperneck -20.248 8.29396 -10.3826
head -5.08236 4.97574 -4.89339
rclavicle -1.66979e-014 -1.43125e-014
rhumerus 0.293233 -0.305986 -62.02
rradius 129.16
rwrist -14.0567
rhand -37.7219 -2.16444
rfingers 7.12502
rthumb -10.771 -31.8683
lclavicle -1.66979e-014 -1.43125e-014
lhumerus 0.620743 11.6061 50.343
lradius 120.225
lwrist -14.2118
lhand -37.5201 17.7952
lfingers 7.12502
lthumb -10.5763 47.5091
rfemur -42.0911 2.36055 28.7859
rtibia 63.3507
rfoot -26.2021 -18.6663
rtoes -28.0596
lfemur -43.718 -2.93753 -14.1546
ltibia 65.8773
lfoot -26.7413 7.75989
ltoes -18.4624
